<svg xmlns="http://www.w3.org/2000/svg" xmlns:xlink="http://www.w3.org/1999/xlink" width="1360" height="1760"><g transform="translate(0 0)"><path d="M480 255c0-2.76 2.24-5 5-5h150c2.76 0 5 2.24 5 5v110c0 2.76-2.24 5-5 5H485c-2.76 0-5-2.24-5-5z" stroke="#000" stroke-width="2" fill="#fff"/><use xlink:href="#a" transform="matrix(1,0,0,1,485,255) translate(19.074999999999996 47.8)"/><use xlink:href="#b" transform="matrix(1,0,0,1,485,255) translate(85.975 47.8)"/><use xlink:href="#c" transform="matrix(1,0,0,1,485,255) translate(55 69.4)"/><path d="M140 90h165c2.76 0 5 2.24 5 5v210c0 2.76 2.24 5 5 5h165" stroke="#000" stroke-width="2" fill="none"/><path d="M140 91h-.04l.04-1-.04-1h.04zM480 310l-14.27 4.64v-9.28z"/><path d="M480 308.95v2.1L464.73 316v-12zm-13.27 4.3l10.03-3.25-10.03-3.26z"/><path d="M140 235h165c2.76 0 5 2.24 5 5v65c0 2.76 2.24 5 5 5h165" stroke="#000" stroke-width="2" fill="none"/><path d="M140 236h-.04l.04-1-.04-1h.04zM480 310l-14.27 4.64v-9.28z"/><path d="M480 308.95v2.1L464.73 316v-12zm-13.27 4.3l10.03-3.25-10.03-3.26z"/><path d="M140 380h165c2.76 0 5-2.24 5-5v-60c0-2.76 2.24-5 5-5h165" stroke="#000" stroke-width="2" fill="none"/><path d="M140 381h-.04l.04-1-.04-1h.04zM480 310l-14.27 4.64v-9.28z"/><path d="M480 308.95v2.1L464.73 316v-12zm-13.27 4.3l10.03-3.25-10.03-3.26z"/><path d="M140 525h165c2.76 0 5-2.24 5-5V315c0-2.76 2.24-5 5-5h165" stroke="#000" stroke-width="2" fill="none"/><path d="M140 526h-.04l.04-1-.04-1h.04zM480 310l-14.27 4.64v-9.28z"/><path d="M480 308.95v2.1L464.73 316v-12zm-13.27 4.3l10.03-3.25-10.03-3.26z"/><path d="M100 45c0-2.76 2.24-5 5-5h230c2.76 0 5 2.24 5 5v50c0 2.76-2.24 5-5 5H105c-2.76 0-5-2.24-5-5z" fill="none"/><use xlink:href="#d" transform="matrix(1,0,0,1,105,45) translate(69.525 28.6)"/><use xlink:href="#e" transform="matrix(1,0,0,1,105,45) translate(114.525 28.6)"/><use xlink:href="#f" transform="matrix(1,0,0,1,105,45) translate(129.525 28.6)"/><use xlink:href="#g" transform="matrix(1,0,0,1,105,45) translate(150.47500000000002 28.6)"/><path d="M100 485c0-2.76 2.24-5 5-5h230c2.76 0 5 2.24 5 5v50c0 2.76-2.24 5-5 5H105c-2.76 0-5-2.24-5-5z" fill="none"/><use xlink:href="#d" transform="matrix(1,0,0,1,105,485) translate(69.525 28.6)"/><use xlink:href="#e" transform="matrix(1,0,0,1,105,485) translate(114.525 28.6)"/><use xlink:href="#f" transform="matrix(1,0,0,1,105,485) translate(129.525 28.6)"/><use xlink:href="#g" transform="matrix(1,0,0,1,105,485) translate(150.47500000000002 28.6)"/><path d="M100 345c0-2.76 2.24-5 5-5h230c2.76 0 5 2.24 5 5v50c0 2.76-2.24 5-5 5H105c-2.76 0-5-2.24-5-5z" fill="none"/><use xlink:href="#h" transform="matrix(1,0,0,1,105,345) translate(69.525 28.6)"/><use xlink:href="#i" transform="matrix(1,0,0,1,105,345) translate(114.525 28.6)"/><use xlink:href="#j" transform="matrix(1,0,0,1,105,345) translate(129.525 28.6)"/><use xlink:href="#k" transform="matrix(1,0,0,1,105,345) translate(150.47500000000002 28.6)"/><path d="M100 205c0-2.76 2.24-5 5-5h230c2.76 0 5 2.24 5 5v50c0 2.76-2.24 5-5 5H105c-2.76 0-5-2.24-5-5z" fill="none"/><use xlink:href="#d" transform="matrix(1,0,0,1,105,205) translate(69.525 28.6)"/><use xlink:href="#e" transform="matrix(1,0,0,1,105,205) translate(114.525 28.6)"/><use xlink:href="#f" transform="matrix(1,0,0,1,105,205) translate(129.525 28.6)"/><use xlink:href="#g" transform="matrix(1,0,0,1,105,205) translate(150.47500000000002 28.6)"/><path d="M340 45c0-2.76 2.24-5 5-5h150c2.76 0 5 2.24 5 5v110c0 2.76-2.24 5-5 5H345c-2.76 0-5-2.24-5-5z" stroke="#000" stroke-width="2" fill="#fff"/><use xlink:href="#l" transform="matrix(1,0,0,1,345,45) translate(14.599999999999994 37)"/><use xlink:href="#m" transform="matrix(1,0,0,1,345,45) translate(13.125 58.6)"/><use xlink:href="#n" transform="matrix(1,0,0,1,345,45) translate(66.025 58.6)"/><use xlink:href="#o" transform="matrix(1,0,0,1,345,45) translate(86.025 58.6)"/><use xlink:href="#p" transform="matrix(1,0,0,1,345,45) translate(40.525 80.20000000000002)"/><use xlink:href="#q" transform="matrix(1,0,0,1,345,45) translate(70.525 80.20000000000002)"/><path d="M360 172c0-2.76 2.24-5 5-5h230c2.76 0 5 2.24 5 5v50c0 2.76-2.24 5-5 5H365c-2.76 0-5-2.24-5-5z" fill="none"/><use xlink:href="#r" transform="matrix(1,0,0,1,365,172) translate(65.05 28.6)"/><use xlink:href="#s" transform="matrix(1,0,0,1,365,172) translate(126 28.6)"/><path d="M1040 255c0-2.76 2.24-5 5-5h170c2.76 0 5 2.24 5 5v110c0 2.76-2.24 5-5 5h-170c-2.76 0-5-2.24-5-5z" stroke="#000" stroke-width="2" fill="#fff"/><use xlink:href="#t" transform="matrix(1,0,0,1,1045,255) translate(4.125 37)"/><use xlink:href="#u" transform="matrix(1,0,0,1,1045,255) translate(88.925 37)"/><use xlink:href="#v" transform="matrix(1,0,0,1,1045,255) translate(150.875 37)"/><use xlink:href="#w" transform="matrix(1,0,0,1,1045,255) translate(6 58.6)"/><use xlink:href="#x" transform="matrix(1,0,0,1,1045,255) translate(67.15 58.6)"/><use xlink:href="#y" transform="matrix(1,0,0,1,1045,255) translate(149 58.6)"/><use xlink:href="#n" transform="matrix(1,0,0,1,1045,255) translate(43.074999999999996 80.20000000000002)"/><use xlink:href="#z" transform="matrix(1,0,0,1,1045,255) translate(63.074999999999996 80.20000000000002)"/><path d="M1040 425c0-2.76 2.24-5 5-5h170c2.76 0 5 2.24 5 5v110c0 2.76-2.24 5-5 5h-170c-2.76 0-5-2.24-5-5z" stroke="#000" stroke-width="2" fill="#fff"/><use xlink:href="#t" transform="matrix(1,0,0,1,1045,425) translate(4.125 26.19999999999999)"/><use xlink:href="#u" transform="matrix(1,0,0,1,1045,425) translate(88.925 26.19999999999999)"/><use xlink:href="#A" transform="matrix(1,0,0,1,1045,425) translate(150.875 26.19999999999999)"/><use xlink:href="#B" transform="matrix(1,0,0,1,1045,425) translate(23.074999999999996 47.79999999999999)"/><use xlink:href="#C" transform="matrix(1,0,0,1,1045,425) translate(69.07499999999999 47.79999999999999)"/><use xlink:href="#D" transform="matrix(1,0,0,1,1045,425) translate(80.025 47.79999999999999)"/><use xlink:href="#E" transform="matrix(1,0,0,1,1045,425) translate(12.075000000000003 69.39999999999999)"/><use xlink:href="#F" transform="matrix(1,0,0,1,1045,425) translate(66.075 69.39999999999999)"/><use xlink:href="#G" transform="matrix(1,0,0,1,1045,425) translate(122.025 69.39999999999999)"/><use xlink:href="#o" transform="matrix(1,0,0,1,1045,425) translate(59.575 91)"/><path d="M1040 480H845c-2.76 0-5-2.24-5-5V315c0-2.76-2.24-5-5-5H640" stroke="#000" stroke-width="2" fill="none"/><path d="M654.27 314.64L640 310l14.27-4.64z"/><path d="M655.27 316L640 311.06v-2.1l15.27-4.96zm-12.03-6l10.03 3.26v-6.52z"/><path d="M820 265c0-2.76 2.24-5 5-5h230c2.76 0 5 2.24 5 5v50c0 2.76-2.24 5-5 5H825c-2.76 0-5-2.24-5-5z" fill="none"/><use xlink:href="#H" transform="matrix(1,0,0,1,825,265) translate(34.625 28.6)"/><use xlink:href="#I" transform="matrix(1,0,0,1,825,265) translate(106.575 28.6)"/><path d="M820 445c0-2.76 2.24-5 5-5h230c2.76 0 5 2.24 5 5v50c0 2.76-2.24 5-5 5H825c-2.76 0-5-2.24-5-5z" fill="none"/><use xlink:href="#r" transform="matrix(1,0,0,1,825,445) translate(64.525 28.6)"/><use xlink:href="#J" transform="matrix(1,0,0,1,825,445) translate(125.47500000000001 28.6)"/><path d="M480 485c0-2.76 2.24-5 5-5h150c2.76 0 5 2.24 5 5v110c0 2.76-2.24 5-5 5H485c-2.76 0-5-2.24-5-5z" stroke="#000" stroke-width="2" fill="#fff"/><use xlink:href="#K" transform="matrix(1,0,0,1,485,485) translate(9.525000000000006 26.19999999999999)"/><use xlink:href="#L" transform="matrix(1,0,0,1,485,485) translate(86.47500000000001 26.19999999999999)"/><use xlink:href="#p" transform="matrix(1,0,0,1,485,485) translate(18 47.79999999999999)"/><use xlink:href="#E" transform="matrix(1,0,0,1,485,485) translate(48 47.79999999999999)"/><use xlink:href="#M" transform="matrix(1,0,0,1,485,485) translate(102 47.79999999999999)"/><use xlink:href="#N" transform="matrix(1,0,0,1,485,485) translate(6.549999999999997 69.39999999999999)"/><use xlink:href="#O" transform="matrix(1,0,0,1,485,485) translate(69.45 69.39999999999999)"/><use xlink:href="#P" transform="matrix(1,0,0,1,485,485) translate(123.45 69.39999999999999)"/><use xlink:href="#Q" transform="matrix(1,0,0,1,485,485) translate(57.5 91)"/><path d="M560 370v110" stroke="#000" stroke-width="2" fill="none"/><path d="M560 480l-4.64-14.27h9.28z"/><path d="M561.05 480h-2.1L554 464.73h12zm-4.3-13.27l3.25 10.03 3.26-10.03z"/><path d="M570 385c0-2.76 2.24-5 5-5h230c2.76 0 5 2.24 5 5v50c0 2.76-2.24 5-5 5H575c-2.76 0-5-2.24-5-5z" fill="none"/><use xlink:href="#R" transform="matrix(1,0,0,1,575,385) translate(14.125 17.799999999999997)"/><use xlink:href="#S" transform="matrix(1,0,0,1,575,385) translate(51.075 17.799999999999997)"/><use xlink:href="#T" transform="matrix(1,0,0,1,575,385) translate(84.975 17.799999999999997)"/><use xlink:href="#n" transform="matrix(1,0,0,1,575,385) translate(124.975 17.799999999999997)"/><use xlink:href="#U" transform="matrix(1,0,0,1,575,385) translate(144.975 17.799999999999997)"/><use xlink:href="#V" transform="matrix(1,0,0,1,575,385) translate(90 39.4)"/><path d="M140 525c0 33.14-26.86 60-60 60s-60-26.86-60-60 26.86-60 60-60 60 26.86 60 60z" stroke="#000" stroke-width="2" fill="#fff"/><g><use xlink:href="#W" transform="matrix(1,0,0,1,25,470) translate(2.0749999999999957 47.8)"/><use xlink:href="#X" transform="matrix(1,0,0,1,25,470) translate(50 69.4)"/></g><path d="M140 380c0 33.14-26.86 60-60 60s-60-26.86-60-60 26.86-60 60-60 60 26.86 60 60z" stroke="#000" stroke-width="2" fill="#fff"/><g><use xlink:href="#W" transform="matrix(1,0,0,1,25,325) translate(2.0749999999999957 47.8)"/><use xlink:href="#Y" transform="matrix(1,0,0,1,25,325) translate(50 69.4)"/></g><path d="M140 235c0 33.14-26.86 60-60 60s-60-26.86-60-60 26.86-60 60-60 60 26.86 60 60z" stroke="#000" stroke-width="2" fill="#fff"/><g><use xlink:href="#W" transform="matrix(1,0,0,1,25,180) translate(2.0749999999999957 47.8)"/><use xlink:href="#Z" transform="matrix(1,0,0,1,25,180) translate(50 69.4)"/></g><path d="M140 90c0 33.14-26.86 60-60 60s-60-26.86-60-60 26.86-60 60-60 60 26.86 60 60z" stroke="#000" stroke-width="2" fill="#fff"/><g><use xlink:href="#W" transform="matrix(1,0,0,1,25,35) translate(2.0749999999999957 47.8)"/><use xlink:href="#k" transform="matrix(1,0,0,1,25,35) translate(50 69.4)"/></g><path d="M990 95c0 22.1-17.9 40-40 40s-40-17.9-40-40 17.9-40 40-40 40 17.9 40 40z" stroke="#000" stroke-width="2" fill="#fff"/><g><use xlink:href="#aa" transform="matrix(1,0,0,1,915,60) translate(10.024999999999999 27.799999999999997)"/><use xlink:href="#ab" transform="matrix(1,0,0,1,915,60) translate(49.975 27.799999999999997)"/><use xlink:href="#ac" transform="matrix(1,0,0,1,915,60) translate(12.675 49.4)"/></g><path d="M1170 95c0 22.1-17.9 40-40 40s-40-17.9-40-40 17.9-40 40-40 40 17.9 40 40z" stroke="#000" stroke-width="2" fill="#fff"/><g><use xlink:href="#aa" transform="matrix(1,0,0,1,1095,60) translate(10.024999999999999 27.799999999999997)"/><use xlink:href="#ad" transform="matrix(1,0,0,1,1095,60) translate(49.975 27.799999999999997)"/><use xlink:href="#ac" transform="matrix(1,0,0,1,1095,60) translate(12.675 49.4)"/></g><path d="M1080 95c0 22.1-17.9 40-40 40s-40-17.9-40-40 17.9-40 40-40 40 17.9 40 40z" stroke="#000" stroke-width="2" fill="#fff"/><g><use xlink:href="#ae" transform="matrix(1,0,0,1,1005,60) translate(10.024999999999999 27.799999999999997)"/><use xlink:href="#af" transform="matrix(1,0,0,1,1005,60) translate(49.975 27.799999999999997)"/><use xlink:href="#ag" transform="matrix(1,0,0,1,1005,60) translate(12.675 49.4)"/></g><path d="M900 95c0 22.1-17.9 40-40 40s-40-17.9-40-40 17.9-40 40-40 40 17.9 40 40z" stroke="#000" stroke-width="2" fill="#fff"/><g><use xlink:href="#ah" transform="matrix(1,0,0,1,825,60) translate(7.524999999999999 27.799999999999997)"/><use xlink:href="#ai" transform="matrix(1,0,0,1,825,60) translate(52.475 27.799999999999997)"/><use xlink:href="#aj" transform="matrix(1,0,0,1,825,60) translate(12.675 49.4)"/></g><path d="M860 135v52.5c0 2.76-2.24 5-5 5H565c-2.76 0-5 2.24-5 5V250" stroke="#000" stroke-width="2" fill="none"/><path d="M860 135h-1v-.06zm1 0h-1l1-.04zM560 250l-4.64-14.27h9.28z"/><path d="M561.05 250h-2.1L554 234.73h12zm-4.3-13.27l3.25 10.03 3.26-10.03z"/><path d="M950 135v52.5c0 2.76-2.24 5-5 5H565c-2.76 0-5 2.24-5 5V250" stroke="#000" stroke-width="2" fill="none"/><path d="M950 135h-1v-.06zm1 0h-1l1-.04zM560 250l-4.64-14.27h9.28z"/><path d="M561.05 250h-2.1L554 234.73h12zm-4.3-13.27l3.25 10.03 3.26-10.03z"/><path d="M1040 135v52.5c0 2.76-2.24 5-5 5H565c-2.76 0-5 2.24-5 5V250" stroke="#000" stroke-width="2" fill="none"/><path d="M1040 135h-1v-.06zm1 0h-1l1-.04zM560 250l-4.64-14.27h9.28z"/><path d="M561.05 250h-2.1L554 234.73h12zm-4.3-13.27l3.25 10.03 3.26-10.03z"/><path d="M1130 135v52.5c0 2.76-2.24 5-5 5H565c-2.76 0-5 2.24-5 5V250" stroke="#000" stroke-width="2" fill="none"/><path d="M1130 135h-1v-.06zm1 0h-1l1-.04zM560 250l-4.64-14.27h9.28z"/><path d="M561.05 250h-2.1L554 234.73h12zm-4.3-13.27l3.25 10.03 3.26-10.03z"/><path d="M620 180c0-2.76 2.24-5 5-5h130c2.76 0 5 2.24 5 5v11.6c0 2.76-2.24 5-5 5H625c-2.76 0-5-2.24-5-5z" fill="none"/><g><use xlink:href="#ak" transform="matrix(1,0,0,1,620,175) translate(17.525 14.6)"/><use xlink:href="#i" transform="matrix(1,0,0,1,620,175) translate(76.525 14.6)"/><use xlink:href="#j" transform="matrix(1,0,0,1,620,175) translate(91.525 14.6)"/><use xlink:href="#k" transform="matrix(1,0,0,1,620,175) translate(112.475 14.6)"/></g><path d="M780 188.7c0-2.76 2.24-5 5-5h430c2.76 0 5 2.24 5 5v33.2c0 2.76-2.24 5-5 5H785c-2.76 0-5-2.24-5-5z" fill="none"/><g><use xlink:href="#al" transform="matrix(1,0,0,1,780,183.7) translate(12.724999999999994 25.6)"/><use xlink:href="#p" transform="matrix(1,0,0,1,780,183.7) translate(80.675 25.6)"/><use xlink:href="#am" transform="matrix(1,0,0,1,780,183.7) translate(110.675 25.6)"/><use xlink:href="#an" transform="matrix(1,0,0,1,780,183.7) translate(182.625 25.6)"/><use xlink:href="#ao" transform="matrix(1,0,0,1,780,183.7) translate(255.57500000000002 25.6)"/><use xlink:href="#ap" transform="matrix(1,0,0,1,780,183.7) translate(288.525 25.6)"/><use xlink:href="#aq" transform="matrix(1,0,0,1,780,183.7) translate(373.32500000000005 25.6)"/></g><path d="M420 160v40c0 2.76 2.24 5 5 5h130c2.76 0 5 2.24 5 5v40" stroke="#000" stroke-width="2" fill="none"/><path d="M560 250l-4.64-14.27h9.28z"/><path d="M561.05 250h-2.1L554 234.73h12zm-4.3-13.27l3.25 10.03 3.26-10.03z"/><path d="M1130 370v50" stroke="#000" stroke-width="2" fill="none"/><path d="M1130 420l-4.64-14.27h9.28z"/><path d="M1131.05 420h-2.1l-4.96-15.27h12zm-4.3-13.27l3.25 10.03 3.26-10.03z"/><path d="M641 287.15h194.5c2.76 0 5 2.24 5 5V305c0 2.76 2.24 5 5 5H1040" stroke="#000" stroke-width="2" fill="none"/><path d="M641 288.15h-1v-2h1zM1040 310l-14.27 4.64v-9.28z"/><path d="M1040 308.95v2.1l-15.27 4.96v-12zm-13.27 4.3l10.03-3.25-10.03-3.26z"/><defs><path d="M205 0l-28-72H64L36 0H1l101-248h38L239 0h-34zm-38-99l-47-123c-12 45-31 82-46 123h93" id="ar"/><path d="M114-163C36-179 61-72 57 0H25l-1-190h30c1 12-1 29 2 39 6-27 23-49 58-41v29" id="as"/><path d="M85-194c31 0 48 13 60 33l-1-100h32l1 261h-30c-2-10 0-23-3-31C134-8 116 4 85 4 32 4 16-35 15-94c0-66 23-100 70-100zm9 24c-40 0-46 34-46 75 0 40 6 74 45 74 42 0 51-32 51-76 0-42-9-74-50-73" id="at"/><path d="M84 4C-5 8 30-112 23-190h32v120c0 31 7 50 39 49 72-2 45-101 50-169h31l1 190h-30c-1-10 1-25-2-33-11 22-28 36-60 37" id="au"/><path d="M24-231v-30h32v30H24zM24 0v-190h32V0H24" id="av"/><path d="M117-194c89-4 53 116 60 194h-32v-121c0-31-8-49-39-48C34-167 62-67 57 0H25l-1-190h30c1 10-1 24 2 32 11-22 29-35 61-36" id="aw"/><path d="M100-194c62-1 85 37 85 99 1 63-27 99-86 99S16-35 15-95c0-66 28-99 85-99zM99-20c44 1 53-31 53-75 0-43-8-75-51-75s-53 32-53 75 10 74 51 75" id="ax"/><g id="a"><use transform="matrix(0.05,0,0,0.05,0,0)" xlink:href="#ar"/><use transform="matrix(0.05,0,0,0.05,12,0)" xlink:href="#as"/><use transform="matrix(0.05,0,0,0.05,17.95,0)" xlink:href="#at"/><use transform="matrix(0.05,0,0,0.05,27.950000000000003,0)" xlink:href="#au"/><use transform="matrix(0.05,0,0,0.05,37.95,0)" xlink:href="#av"/><use transform="matrix(0.05,0,0,0.05,41.900000000000006,0)" xlink:href="#aw"/><use transform="matrix(0.05,0,0,0.05,51.900000000000006,0)" xlink:href="#ax"/></g><path d="M240 0l2-218c-23 76-54 145-80 218h-23L58-218 59 0H30v-248h44l77 211c21-75 51-140 76-211h43V0h-30" id="ay"/><path d="M100-194c63 0 86 42 84 106H49c0 40 14 67 53 68 26 1 43-12 49-29l28 8c-11 28-37 45-77 45C44 4 14-33 15-96c1-61 26-98 85-98zm52 81c6-60-76-77-97-28-3 7-6 17-6 28h103" id="az"/><path d="M177-190C167-65 218 103 67 71c-23-6-38-20-44-43l32-5c15 47 100 32 89-28v-30C133-14 115 1 83 1 29 1 15-40 15-95c0-56 16-97 71-98 29-1 48 16 59 35 1-10 0-23 2-32h30zM94-22c36 0 50-32 50-73 0-42-14-75-50-75-39 0-46 34-46 75s6 73 46 73" id="aA"/><path d="M141-36C126-15 110 5 73 4 37 3 15-17 15-53c-1-64 63-63 125-63 3-35-9-54-41-54-24 1-41 7-42 31l-33-3c5-37 33-52 76-52 45 0 72 20 72 64v82c-1 20 7 32 28 27v20c-31 9-61-2-59-35zM48-53c0 20 12 33 32 33 41-3 63-29 60-74-43 2-92-5-92 41" id="aB"/><g id="b"><use transform="matrix(0.05,0,0,0.05,0,0)" xlink:href="#ay"/><use transform="matrix(0.05,0,0,0.05,14.950000000000001,0)" xlink:href="#az"/><use transform="matrix(0.05,0,0,0.05,24.950000000000003,0)" xlink:href="#aA"/><use transform="matrix(0.05,0,0,0.05,34.95,0)" xlink:href="#aB"/></g><path d="M101-251c82-7 93 87 43 132L82-64C71-53 59-42 53-27h129V0H18c2-99 128-94 128-182 0-28-16-43-45-43s-46 15-49 41l-32-3c6-41 34-60 81-64" id="aC"/><path d="M54-142c48-35 137-8 131 61C196 18 31 33 14-55l32-4c7 23 22 37 52 37 35-1 51-22 54-58 4-55-73-65-99-34H22l8-134h141v27H59" id="aD"/><path d="M110-160c48 1 74 30 74 79 0 53-28 85-80 85-65 0-83-55-86-122-5-90 50-162 133-122 14 7 22 21 27 39l-31 6c-5-40-67-38-82-6-9 19-15 44-15 74 11-20 30-34 60-33zm-7 138c34 0 49-23 49-58s-16-56-50-56c-29 0-50 16-49 49 1 36 15 65 50 65" id="aE"/><path d="M101-251c68 0 85 55 85 127S166 4 100 4C33 4 14-52 14-124c0-73 17-127 87-127zm-1 229c47 0 54-49 54-102s-4-102-53-102c-51 0-55 48-55 102 0 53 5 102 54 102" id="aF"/><g id="c"><use transform="matrix(0.05,0,0,0.05,0,0)" xlink:href="#aC"/><use transform="matrix(0.05,0,0,0.05,10,0)" xlink:href="#aD"/><use transform="matrix(0.05,0,0,0.05,20,0)" xlink:href="#aE"/><use transform="matrix(0.05,0,0,0.05,30,0)" xlink:href="#aF"/></g><path d="M33 0v-248h34V0H33" id="aG"/><path d="M115-194c55 1 70 41 70 98S169 2 115 4C84 4 66-9 55-30l1 105H24l-1-265h31l2 30c10-21 28-34 59-34zm-8 174c40 0 45-34 45-75s-6-73-45-74c-42 0-51 32-51 76 0 43 10 73 51 73" id="aH"/><path d="M59-47c-2 24 18 29 38 22v24C64 9 27 4 27-40v-127H5v-23h24l9-43h21v43h35v23H59v120" id="aI"/><g id="d"><use transform="matrix(0.05,0,0,0.05,0,0)" xlink:href="#aG"/><use transform="matrix(0.05,0,0,0.05,5,0)" xlink:href="#aw"/><use transform="matrix(0.05,0,0,0.05,15,0)" xlink:href="#aH"/><use transform="matrix(0.05,0,0,0.05,25,0)" xlink:href="#au"/><use transform="matrix(0.05,0,0,0.05,35,0)" xlink:href="#aI"/></g><use transform="matrix(0.05,0,0,0.05,0,0)" xlink:href="#aF" id="e"/><g id="f"><use transform="matrix(0.05,0,0,0.05,0,0)" xlink:href="#ax"/><use transform="matrix(0.05,0,0,0.05,10,0)" xlink:href="#as"/></g><path d="M27 0v-27h64v-190l-56 39v-29l58-41h29v221h61V0H27" id="aJ"/><use transform="matrix(0.05,0,0,0.05,0,0)" xlink:href="#aJ" id="g"/><g id="h"><use transform="matrix(0.05,0,0,0.05,0,0)" xlink:href="#aG"/><use transform="matrix(0.05,0,0,0.05,5,0)" xlink:href="#aw"/><use transform="matrix(0.05,0,0,0.05,15,0)" xlink:href="#aH"/><use transform="matrix(0.05,0,0,0.05,25,0)" xlink:href="#au"/><use transform="matrix(0.05,0,0,0.05,35,0)" xlink:href="#aI"/></g><use transform="matrix(0.05,0,0,0.05,0,0)" xlink:href="#aF" id="i"/><g id="j"><use transform="matrix(0.05,0,0,0.05,0,0)" xlink:href="#ax"/><use transform="matrix(0.05,0,0,0.05,10,0)" xlink:href="#as"/></g><use transform="matrix(0.05,0,0,0.05,0,0)" xlink:href="#aJ" id="k"/><path d="M96-169c-40 0-48 33-48 73s9 75 48 75c24 0 41-14 43-38l32 2c-6 37-31 61-74 61-59 0-76-41-82-99-10-93 101-131 147-64 4 7 5 14 7 22l-32 3c-4-21-16-35-41-35" id="aK"/><path d="M24 0v-261h32V0H24" id="aL"/><path d="M210-169c-67 3-38 105-44 169h-31v-121c0-29-5-50-35-48C34-165 62-65 56 0H25l-1-190h30c1 10-1 24 2 32 10-44 99-50 107 0 11-21 27-35 58-36 85-2 47 119 55 194h-31v-121c0-29-5-49-35-48" id="aM"/><path d="M33-154v-36h34v36H33zM33 0v-36h34V0H33" id="aN"/><g id="l"><use transform="matrix(0.05,0,0,0.05,0,0)" xlink:href="#ar"/><use transform="matrix(0.05,0,0,0.05,12,0)" xlink:href="#aK"/><use transform="matrix(0.05,0,0,0.05,21,0)" xlink:href="#aK"/><use transform="matrix(0.05,0,0,0.05,30,0)" xlink:href="#az"/><use transform="matrix(0.05,0,0,0.05,40,0)" xlink:href="#aL"/><use transform="matrix(0.05,0,0,0.05,43.95,0)" xlink:href="#az"/><use transform="matrix(0.05,0,0,0.05,53.95,0)" xlink:href="#as"/><use transform="matrix(0.05,0,0,0.05,59.900000000000006,0)" xlink:href="#ax"/><use transform="matrix(0.05,0,0,0.05,69.9,0)" xlink:href="#aM"/><use transform="matrix(0.05,0,0,0.05,84.85000000000001,0)" xlink:href="#az"/><use transform="matrix(0.05,0,0,0.05,94.85000000000001,0)" xlink:href="#aI"/><use transform="matrix(0.05,0,0,0.05,99.85000000000001,0)" xlink:href="#az"/><use transform="matrix(0.05,0,0,0.05,109.85000000000001,0)" xlink:href="#as"/><use transform="matrix(0.05,0,0,0.05,115.80000000000001,0)" xlink:href="#aN"/></g><path d="M185-189c-5-48-123-54-124 2 14 75 158 14 163 119 3 78-121 87-175 55-17-10-28-26-33-46l33-7c5 56 141 63 141-1 0-78-155-14-162-118-5-82 145-84 179-34 5 7 8 16 11 25" id="aO"/><g id="m"><use transform="matrix(0.05,0,0,0.05,0,0)" xlink:href="#aO"/><use transform="matrix(0.05,0,0,0.05,12,0)" xlink:href="#aI"/><use transform="matrix(0.05,0,0,0.05,17,0)" xlink:href="#as"/><use transform="matrix(0.05,0,0,0.05,22.95,0)" xlink:href="#au"/><use transform="matrix(0.05,0,0,0.05,32.95,0)" xlink:href="#aM"/></g><g id="n"><use transform="matrix(0.05,0,0,0.05,0,0)" xlink:href="#aI"/><use transform="matrix(0.05,0,0,0.05,5,0)" xlink:href="#ax"/></g><g id="o"><use transform="matrix(0.05,0,0,0.05,0,0)" xlink:href="#aI"/><use transform="matrix(0.05,0,0,0.05,5,0)" xlink:href="#as"/><use transform="matrix(0.05,0,0,0.05,10.95,0)" xlink:href="#av"/><use transform="matrix(0.05,0,0,0.05,14.899999999999999,0)" xlink:href="#aA"/><use transform="matrix(0.05,0,0,0.05,24.9,0)" xlink:href="#aA"/><use transform="matrix(0.05,0,0,0.05,34.9,0)" xlink:href="#az"/><use transform="matrix(0.05,0,0,0.05,44.9,0)" xlink:href="#as"/></g><path d="M106-169C34-169 62-67 57 0H25v-261h32l-1 103c12-21 28-36 61-36 89 0 53 116 60 194h-32v-121c2-32-8-49-39-48" id="aP"/><g id="p"><use transform="matrix(0.05,0,0,0.05,0,0)" xlink:href="#aI"/><use transform="matrix(0.05,0,0,0.05,5,0)" xlink:href="#aP"/><use transform="matrix(0.05,0,0,0.05,15,0)" xlink:href="#az"/></g><g id="q"><use transform="matrix(0.05,0,0,0.05,0,0)" xlink:href="#av"/><use transform="matrix(0.05,0,0,0.05,3.95,0)" xlink:href="#aw"/><use transform="matrix(0.05,0,0,0.05,13.949999999999998,0)" xlink:href="#aH"/><use transform="matrix(0.05,0,0,0.05,23.95,0)" xlink:href="#au"/><use transform="matrix(0.05,0,0,0.05,33.95,0)" xlink:href="#aI"/></g><g id="r"><use transform="matrix(0.05,0,0,0.05,0,0)" xlink:href="#ar"/><use transform="matrix(0.05,0,0,0.05,12,0)" xlink:href="#aw"/><use transform="matrix(0.05,0,0,0.05,22,0)" xlink:href="#aB"/><use transform="matrix(0.05,0,0,0.05,32,0)" xlink:href="#aL"/><use transform="matrix(0.05,0,0,0.05,35.95,0)" xlink:href="#ax"/><use transform="matrix(0.05,0,0,0.05,45.95,0)" xlink:href="#aA"/></g><g id="s"><use transform="matrix(0.05,0,0,0.05,0,0)" xlink:href="#av"/><use transform="matrix(0.05,0,0,0.05,3.95,0)" xlink:href="#aw"/><use transform="matrix(0.05,0,0,0.05,13.949999999999998,0)" xlink:href="#aH"/><use transform="matrix(0.05,0,0,0.05,23.95,0)" xlink:href="#au"/><use transform="matrix(0.05,0,0,0.05,33.95,0)" xlink:href="#aI"/></g><path d="M232-93c-1 65-40 97-104 97C67 4 28-28 28-90v-158h33c8 89-33 224 67 224 102 0 64-133 71-224h33v155" id="aQ"/><path d="M135-143c-3-34-86-38-87 0 15 53 115 12 119 90S17 21 10-45l28-5c4 36 97 45 98 0-10-56-113-15-118-90-4-57 82-63 122-42 12 7 21 19 24 35" id="aR"/><g id="t"><use transform="matrix(0.05,0,0,0.05,0,0)" xlink:href="#aQ"/><use transform="matrix(0.05,0,0,0.05,12.950000000000001,0)" xlink:href="#aL"/><use transform="matrix(0.05,0,0,0.05,16.900000000000002,0)" xlink:href="#aI"/><use transform="matrix(0.05,0,0,0.05,21.900000000000002,0)" xlink:href="#as"/><use transform="matrix(0.05,0,0,0.05,27.85,0)" xlink:href="#aB"/><use transform="matrix(0.05,0,0,0.05,37.85,0)" xlink:href="#aR"/><use transform="matrix(0.05,0,0,0.05,46.85,0)" xlink:href="#ax"/><use transform="matrix(0.05,0,0,0.05,56.85,0)" xlink:href="#aw"/><use transform="matrix(0.05,0,0,0.05,66.85,0)" xlink:href="#av"/><use transform="matrix(0.05,0,0,0.05,70.8,0)" xlink:href="#aK"/></g><g id="u"><use transform="matrix(0.05,0,0,0.05,0,0)" xlink:href="#aO"/><use transform="matrix(0.05,0,0,0.05,12,0)" xlink:href="#az"/><use transform="matrix(0.05,0,0,0.05,22,0)" xlink:href="#aw"/><use transform="matrix(0.05,0,0,0.05,32,0)" xlink:href="#aR"/><use transform="matrix(0.05,0,0,0.05,41,0)" xlink:href="#ax"/><use transform="matrix(0.05,0,0,0.05,51,0)" xlink:href="#as"/></g><g id="v"><use transform="matrix(0.05,0,0,0.05,0,0)" xlink:href="#aJ"/><use transform="matrix(0.05,0,0,0.05,10,0)" xlink:href="#aN"/></g><path d="M127-220V0H93v-220H8v-28h204v28h-85" id="aS"/><g id="w"><use transform="matrix(0.05,0,0,0.05,0,0)" xlink:href="#aS"/><use transform="matrix(0.05,0,0,0.05,10.3,0)" xlink:href="#as"/><use transform="matrix(0.05,0,0,0.05,16.25,0)" xlink:href="#av"/><use transform="matrix(0.05,0,0,0.05,20.2,0)" xlink:href="#aA"/><use transform="matrix(0.05,0,0,0.05,30.200000000000003,0)" xlink:href="#aA"/><use transform="matrix(0.05,0,0,0.05,40.2,0)" xlink:href="#az"/><use transform="matrix(0.05,0,0,0.05,50.2,0)" xlink:href="#as"/></g><g id="x"><use transform="matrix(0.05,0,0,0.05,0,0)" xlink:href="#au"/><use transform="matrix(0.05,0,0,0.05,10,0)" xlink:href="#aL"/><use transform="matrix(0.05,0,0,0.05,13.949999999999998,0)" xlink:href="#aI"/><use transform="matrix(0.05,0,0,0.05,18.95,0)" xlink:href="#as"/><use transform="matrix(0.05,0,0,0.05,24.9,0)" xlink:href="#aB"/><use transform="matrix(0.05,0,0,0.05,34.9,0)" xlink:href="#aR"/><use transform="matrix(0.05,0,0,0.05,43.9,0)" xlink:href="#ax"/><use transform="matrix(0.05,0,0,0.05,53.900000000000006,0)" xlink:href="#aw"/><use transform="matrix(0.05,0,0,0.05,63.900000000000006,0)" xlink:href="#av"/><use transform="matrix(0.05,0,0,0.05,67.85,0)" xlink:href="#aK"/></g><g id="y"><use transform="matrix(0.05,0,0,0.05,0,0)" xlink:href="#aI"/><use transform="matrix(0.05,0,0,0.05,5,0)" xlink:href="#ax"/></g><path d="M108 0H70L1-190h34L89-25l56-165h34" id="aT"/><g id="z"><use transform="matrix(0.05,0,0,0.05,0,0)" xlink:href="#as"/><use transform="matrix(0.05,0,0,0.05,5.95,0)" xlink:href="#az"/><use transform="matrix(0.05,0,0,0.05,15.949999999999998,0)" xlink:href="#aK"/><use transform="matrix(0.05,0,0,0.05,24.95,0)" xlink:href="#az"/><use transform="matrix(0.05,0,0,0.05,34.95,0)" xlink:href="#av"/><use transform="matrix(0.05,0,0,0.05,38.900000000000006,0)" xlink:href="#aT"/><use transform="matrix(0.05,0,0,0.05,47.900000000000006,0)" xlink:href="#az"/><use transform="matrix(0.05,0,0,0.05,57.900000000000006,0)" xlink:href="#as"/></g><g id="A"><use transform="matrix(0.05,0,0,0.05,0,0)" xlink:href="#aC"/><use transform="matrix(0.05,0,0,0.05,10,0)" xlink:href="#aN"/></g><path d="M30 0v-248h187v28H63v79h144v27H63v87h162V0H30" id="aU"/><g id="B"><use transform="matrix(0.05,0,0,0.05,0,0)" xlink:href="#aU"/><use transform="matrix(0.05,0,0,0.05,12,0)" xlink:href="#aK"/><use transform="matrix(0.05,0,0,0.05,21,0)" xlink:href="#aP"/><use transform="matrix(0.05,0,0,0.05,31,0)" xlink:href="#ax"/></g><path d="M16-82v-28h88v28H16" id="aV"/><use transform="matrix(0.05,0,0,0.05,0,0)" xlink:href="#aV" id="C"/><g id="D"><use transform="matrix(0.05,0,0,0.05,0,0)" xlink:href="#as"/><use transform="matrix(0.05,0,0,0.05,5.95,0)" xlink:href="#az"/><use transform="matrix(0.05,0,0,0.05,15.949999999999998,0)" xlink:href="#aK"/><use transform="matrix(0.05,0,0,0.05,24.95,0)" xlink:href="#az"/><use transform="matrix(0.05,0,0,0.05,34.95,0)" xlink:href="#av"/><use transform="matrix(0.05,0,0,0.05,38.900000000000006,0)" xlink:href="#aT"/><use transform="matrix(0.05,0,0,0.05,47.900000000000006,0)" xlink:href="#az"/><use transform="matrix(0.05,0,0,0.05,57.900000000000006,0)" xlink:href="#aR"/></g><g id="E"><use transform="matrix(0.05,0,0,0.05,0,0)" xlink:href="#aR"/><use transform="matrix(0.05,0,0,0.05,9,0)" xlink:href="#ax"/><use transform="matrix(0.05,0,0,0.05,19,0)" xlink:href="#au"/><use transform="matrix(0.05,0,0,0.05,29,0)" xlink:href="#aw"/><use transform="matrix(0.05,0,0,0.05,39,0)" xlink:href="#at"/></g><path d="M206 0h-36l-40-164L89 0H53L-1-190h32L70-26l43-164h34l41 164 42-164h31" id="aW"/><g id="F"><use transform="matrix(0.05,0,0,0.05,0,0)" xlink:href="#aW"/><use transform="matrix(0.05,0,0,0.05,12.950000000000001,0)" xlink:href="#aB"/><use transform="matrix(0.05,0,0,0.05,22.950000000000003,0)" xlink:href="#aT"/><use transform="matrix(0.05,0,0,0.05,31.950000000000003,0)" xlink:href="#az"/><use transform="matrix(0.05,0,0,0.05,41.95,0)" xlink:href="#aR"/></g><path d="M101-234c-31-9-42 10-38 44h38v23H63V0H32v-167H5v-23h27c-7-52 17-82 69-68v24" id="aX"/><g id="G"><use transform="matrix(0.05,0,0,0.05,0,0)" xlink:href="#aX"/><use transform="matrix(0.05,0,0,0.05,5,0)" xlink:href="#as"/><use transform="matrix(0.05,0,0,0.05,10.95,0)" xlink:href="#ax"/><use transform="matrix(0.05,0,0,0.05,20.95,0)" xlink:href="#aM"/></g><path d="M233-177c-1 41-23 64-60 70L243 0h-38l-65-103H63V0H30v-248c88 3 205-21 203 71zM63-129c60-2 137 13 137-47 0-61-80-42-137-45v92" id="aY"/><path d="M145-31C134-9 116 4 85 4 32 4 16-35 15-94c0-59 17-99 70-100 32-1 48 14 60 33 0-11-1-24 2-32h30l-1 268h-32zM93-21c41 0 51-33 51-76s-8-73-50-73c-40 0-46 35-46 75s5 74 45 74" id="aZ"/><g id="H"><use transform="matrix(0.05,0,0,0.05,0,0)" xlink:href="#aY"/><use transform="matrix(0.05,0,0,0.05,12.950000000000001,0)" xlink:href="#az"/><use transform="matrix(0.05,0,0,0.05,22.950000000000003,0)" xlink:href="#aZ"/><use transform="matrix(0.05,0,0,0.05,32.95,0)" xlink:href="#au"/><use transform="matrix(0.05,0,0,0.05,42.95,0)" xlink:href="#az"/><use transform="matrix(0.05,0,0,0.05,52.95,0)" xlink:href="#aR"/><use transform="matrix(0.05,0,0,0.05,61.95,0)" xlink:href="#aI"/></g><g id="I"><use transform="matrix(0.05,0,0,0.05,0,0)" xlink:href="#av"/><use transform="matrix(0.05,0,0,0.05,3.95,0)" xlink:href="#aw"/><use transform="matrix(0.05,0,0,0.05,13.949999999999998,0)" xlink:href="#aX"/><use transform="matrix(0.05,0,0,0.05,18.95,0)" xlink:href="#ax"/><use transform="matrix(0.05,0,0,0.05,28.950000000000003,0)" xlink:href="#as"/><use transform="matrix(0.05,0,0,0.05,34.9,0)" xlink:href="#aM"/><use transform="matrix(0.05,0,0,0.05,49.85,0)" xlink:href="#aB"/><use transform="matrix(0.05,0,0,0.05,59.85,0)" xlink:href="#aI"/><use transform="matrix(0.05,0,0,0.05,64.85,0)" xlink:href="#av"/><use transform="matrix(0.05,0,0,0.05,68.8,0)" xlink:href="#ax"/><use transform="matrix(0.05,0,0,0.05,78.8,0)" xlink:href="#aw"/></g><g id="J"><use transform="matrix(0.05,0,0,0.05,0,0)" xlink:href="#aG"/><use transform="matrix(0.05,0,0,0.05,5,0)" xlink:href="#aw"/><use transform="matrix(0.05,0,0,0.05,15,0)" xlink:href="#aH"/><use transform="matrix(0.05,0,0,0.05,25,0)" xlink:href="#au"/><use transform="matrix(0.05,0,0,0.05,35,0)" xlink:href="#aI"/></g><path d="M143 0L79-87 56-68V0H24v-261h32v163l83-92h37l-77 82L181 0h-38" id="ba"/><g id="K"><use transform="matrix(0.05,0,0,0.05,0,0)" xlink:href="#aO"/><use transform="matrix(0.05,0,0,0.05,12,0)" xlink:href="#aH"/><use transform="matrix(0.05,0,0,0.05,22,0)" xlink:href="#az"/><use transform="matrix(0.05,0,0,0.05,32,0)" xlink:href="#aB"/><use transform="matrix(0.05,0,0,0.05,42,0)" xlink:href="#ba"/><use transform="matrix(0.05,0,0,0.05,51,0)" xlink:href="#az"/><use transform="matrix(0.05,0,0,0.05,61,0)" xlink:href="#as"/><use transform="matrix(0.05,0,0,0.05,66.95,0)" xlink:href="#aN"/></g><path d="M140-251c81 0 123 46 123 126C263-46 219 4 140 4 59 4 17-45 17-125s42-126 123-126zm0 227c63 0 89-41 89-101s-29-99-89-99c-61 0-89 39-89 99S79-25 140-24" id="bb"/><g id="L"><use transform="matrix(0.05,0,0,0.05,0,0)" xlink:href="#bb"/><use transform="matrix(0.05,0,0,0.05,14,0)" xlink:href="#au"/><use transform="matrix(0.05,0,0,0.05,24,0)" xlink:href="#aI"/><use transform="matrix(0.05,0,0,0.05,29,0)" xlink:href="#aH"/><use transform="matrix(0.05,0,0,0.05,39,0)" xlink:href="#au"/><use transform="matrix(0.05,0,0,0.05,49,0)" xlink:href="#aI"/></g><g id="M"><use transform="matrix(0.05,0,0,0.05,0,0)" xlink:href="#aB"/><use transform="matrix(0.05,0,0,0.05,10,0)" xlink:href="#aw"/><use transform="matrix(0.05,0,0,0.05,20,0)" xlink:href="#at"/></g><g id="N"><use transform="matrix(0.05,0,0,0.05,0,0)" xlink:href="#aT"/><use transform="matrix(0.05,0,0,0.05,9,0)" xlink:href="#ax"/><use transform="matrix(0.05,0,0,0.05,19,0)" xlink:href="#aL"/><use transform="matrix(0.05,0,0,0.05,22.95,0)" xlink:href="#au"/><use transform="matrix(0.05,0,0,0.05,32.95,0)" xlink:href="#aM"/><use transform="matrix(0.05,0,0,0.05,47.900000000000006,0)" xlink:href="#az"/></g><path d="M115-194c53 0 69 39 70 98 0 66-23 100-70 100C84 3 66-7 56-30L54 0H23l1-261h32v101c10-23 28-34 59-34zm-8 174c40 0 45-34 45-75 0-40-5-75-45-74-42 0-51 32-51 76 0 43 10 73 51 73" id="bc"/><g id="O"><use transform="matrix(0.05,0,0,0.05,0,0)" xlink:href="#bc"/><use transform="matrix(0.05,0,0,0.05,10,0)" xlink:href="#aB"/><use transform="matrix(0.05,0,0,0.05,20,0)" xlink:href="#aR"/><use transform="matrix(0.05,0,0,0.05,29,0)" xlink:href="#az"/><use transform="matrix(0.05,0,0,0.05,39,0)" xlink:href="#at"/></g><g id="P"><use transform="matrix(0.05,0,0,0.05,0,0)" xlink:href="#ax"/><use transform="matrix(0.05,0,0,0.05,10,0)" xlink:href="#aw"/></g><g id="Q"><use transform="matrix(0.05,0,0,0.05,0,0)" xlink:href="#at"/><use transform="matrix(0.05,0,0,0.05,10,0)" xlink:href="#aB"/><use transform="matrix(0.05,0,0,0.05,20,0)" xlink:href="#aI"/><use transform="matrix(0.05,0,0,0.05,25,0)" xlink:href="#aB"/></g><g id="R"><use transform="matrix(0.05,0,0,0.05,0,0)" xlink:href="#aQ"/><use transform="matrix(0.05,0,0,0.05,12.950000000000001,0)" xlink:href="#aR"/><use transform="matrix(0.05,0,0,0.05,21.950000000000003,0)" xlink:href="#az"/></g><g id="S"><use transform="matrix(0.05,0,0,0.05,0,0)" xlink:href="#as"/><use transform="matrix(0.05,0,0,0.05,5.95,0)" xlink:href="#aB"/><use transform="matrix(0.05,0,0,0.05,15.949999999999998,0)" xlink:href="#aW"/></g><g id="T"><use transform="matrix(0.05,0,0,0.05,0,0)" xlink:href="#at"/><use transform="matrix(0.05,0,0,0.05,10,0)" xlink:href="#aB"/><use transform="matrix(0.05,0,0,0.05,20,0)" xlink:href="#aI"/><use transform="matrix(0.05,0,0,0.05,25,0)" xlink:href="#aB"/></g><g id="U"><use transform="matrix(0.05,0,0,0.05,0,0)" xlink:href="#aK"/><use transform="matrix(0.05,0,0,0.05,9,0)" xlink:href="#aB"/><use transform="matrix(0.05,0,0,0.05,19,0)" xlink:href="#aL"/><use transform="matrix(0.05,0,0,0.05,22.95,0)" xlink:href="#aK"/><use transform="matrix(0.05,0,0,0.05,31.950000000000003,0)" xlink:href="#au"/><use transform="matrix(0.05,0,0,0.05,41.95,0)" xlink:href="#aL"/><use transform="matrix(0.05,0,0,0.05,45.900000000000006,0)" xlink:href="#aB"/><use transform="matrix(0.05,0,0,0.05,55.900000000000006,0)" xlink:href="#aI"/><use transform="matrix(0.05,0,0,0.05,60.900000000000006,0)" xlink:href="#az"/></g><g id="V"><use transform="matrix(0.05,0,0,0.05,0,0)" xlink:href="#ax"/><use transform="matrix(0.05,0,0,0.05,10,0)" xlink:href="#au"/><use transform="matrix(0.05,0,0,0.05,20,0)" xlink:href="#aI"/><use transform="matrix(0.05,0,0,0.05,25,0)" xlink:href="#aH"/><use transform="matrix(0.05,0,0,0.05,35,0)" xlink:href="#au"/><use transform="matrix(0.05,0,0,0.05,45,0)" xlink:href="#aI"/></g><path d="M30-248c87 1 191-15 191 75 0 78-77 80-158 76V0H30v-248zm33 125c57 0 124 11 124-50 0-59-68-47-124-48v98" id="bd"/><g id="W"><use transform="matrix(0.05,0,0,0.05,0,0)" xlink:href="#bd"/><use transform="matrix(0.05,0,0,0.05,12,0)" xlink:href="#aP"/><use transform="matrix(0.05,0,0,0.05,22,0)" xlink:href="#ax"/><use transform="matrix(0.05,0,0,0.05,32,0)" xlink:href="#aI"/><use transform="matrix(0.05,0,0,0.05,37,0)" xlink:href="#ax"/><use transform="matrix(0.05,0,0,0.05,47,0)" xlink:href="#as"/><use transform="matrix(0.05,0,0,0.05,52.95,0)" xlink:href="#az"/><use transform="matrix(0.05,0,0,0.05,62.95,0)" xlink:href="#aR"/><use transform="matrix(0.05,0,0,0.05,71.95,0)" xlink:href="#av"/><use transform="matrix(0.05,0,0,0.05,75.9,0)" xlink:href="#aR"/><use transform="matrix(0.05,0,0,0.05,84.9,0)" xlink:href="#aI"/><use transform="matrix(0.05,0,0,0.05,89.9,0)" xlink:href="#ax"/><use transform="matrix(0.05,0,0,0.05,99.9,0)" xlink:href="#as"/></g><path d="M155-56V0h-30v-56H8v-25l114-167h33v167h35v25h-35zm-30-156c-27 46-58 90-88 131h88v-131" id="be"/><use transform="matrix(0.05,0,0,0.05,0,0)" xlink:href="#be" id="X"/><path d="M126-127c33 6 58 20 58 59 0 88-139 92-164 29-3-8-5-16-6-25l32-3c6 27 21 44 54 44 32 0 52-15 52-46 0-38-36-46-79-43v-28c39 1 72-4 72-42 0-27-17-43-46-43-28 0-47 15-49 41l-32-3c6-42 35-63 81-64 48-1 79 21 79 65 0 36-21 52-52 59" id="bf"/><use transform="matrix(0.05,0,0,0.05,0,0)" xlink:href="#bf" id="Y"/><use transform="matrix(0.05,0,0,0.05,0,0)" xlink:href="#aC" id="Z"/><path fill="#fcc438" d="M30 0v-248h33v221h125V0H30" id="bg"/><path fill="#fcc438" d="M30 0v-248h187v28H63v79h144v27H63v87h162V0H30" id="bh"/><path fill="#fcc438" d="M30-248c118-7 216 8 213 122C240-48 200 0 122 0H30v-248zM63-27c89 8 146-16 146-99s-60-101-146-95v194" id="bi"/><g id="aa"><use transform="matrix(0.05,0,0,0.05,0,0)" xlink:href="#bg"/><use transform="matrix(0.05,0,0,0.05,10,0)" xlink:href="#bh"/><use transform="matrix(0.05,0,0,0.05,22,0)" xlink:href="#bi"/></g><path fill="#fcc438" d="M101-251c82-7 93 87 43 132L82-64C71-53 59-42 53-27h129V0H18c2-99 128-94 128-182 0-28-16-43-45-43s-46 15-49 41l-32-3c6-41 34-60 81-64" id="bj"/><use transform="matrix(0.05,0,0,0.05,0,0)" xlink:href="#bj" id="ab"/><path fill="#fcc438" d="M100-194c62-1 85 37 85 99 1 63-27 99-86 99S16-35 15-95c0-66 28-99 85-99zM99-20c44 1 53-31 53-75 0-43-8-75-51-75s-53 32-53 75 10 74 51 75" id="bk"/><path fill="#fcc438" d="M117-194c89-4 53 116 60 194h-32v-121c0-31-8-49-39-48C34-167 62-67 57 0H25l-1-190h30c1 10-1 24 2 32 11-22 29-35 61-36" id="bl"/><path fill="#fcc438" d="M0 4l72-265h28L28 4H0" id="bm"/><path fill="#fcc438" d="M101-234c-31-9-42 10-38 44h38v23H63V0H32v-167H5v-23h27c-7-52 17-82 69-68v24" id="bn"/><g id="ac"><use transform="matrix(0.05,0,0,0.05,0,0)" xlink:href="#bk"/><use transform="matrix(0.05,0,0,0.05,10,0)" xlink:href="#bl"/><use transform="matrix(0.05,0,0,0.05,20,0)" xlink:href="#bm"/><use transform="matrix(0.05,0,0,0.05,25,0)" xlink:href="#bk"/><use transform="matrix(0.05,0,0,0.05,35,0)" xlink:href="#bn"/><use transform="matrix(0.05,0,0,0.05,39.65,0)" xlink:href="#bn"/></g><path fill="#fcc438" d="M155-56V0h-30v-56H8v-25l114-167h33v167h35v25h-35zm-30-156c-27 46-58 90-88 131h88v-131" id="bo"/><use transform="matrix(0.05,0,0,0.05,0,0)" xlink:href="#bo" id="ad"/><path fill="#9b0d28" d="M30 0v-248h33v221h125V0H30" id="bp"/><path fill="#9b0d28" d="M30 0v-248h187v28H63v79h144v27H63v87h162V0H30" id="bq"/><path fill="#9b0d28" d="M30-248c118-7 216 8 213 122C240-48 200 0 122 0H30v-248zM63-27c89 8 146-16 146-99s-60-101-146-95v194" id="br"/><g id="ae"><use transform="matrix(0.05,0,0,0.05,0,0)" xlink:href="#bp"/><use transform="matrix(0.05,0,0,0.05,10,0)" xlink:href="#bq"/><use transform="matrix(0.05,0,0,0.05,22,0)" xlink:href="#br"/></g><path fill="#9b0d28" d="M126-127c33 6 58 20 58 59 0 88-139 92-164 29-3-8-5-16-6-25l32-3c6 27 21 44 54 44 32 0 52-15 52-46 0-38-36-46-79-43v-28c39 1 72-4 72-42 0-27-17-43-46-43-28 0-47 15-49 41l-32-3c6-42 35-63 81-64 48-1 79 21 79 65 0 36-21 52-52 59" id="bs"/><use transform="matrix(0.05,0,0,0.05,0,0)" xlink:href="#bs" id="af"/><path fill="#9b0d28" d="M100-194c62-1 85 37 85 99 1 63-27 99-86 99S16-35 15-95c0-66 28-99 85-99zM99-20c44 1 53-31 53-75 0-43-8-75-51-75s-53 32-53 75 10 74 51 75" id="bt"/><path fill="#9b0d28" d="M117-194c89-4 53 116 60 194h-32v-121c0-31-8-49-39-48C34-167 62-67 57 0H25l-1-190h30c1 10-1 24 2 32 11-22 29-35 61-36" id="bu"/><path fill="#9b0d28" d="M0 4l72-265h28L28 4H0" id="bv"/><path fill="#9b0d28" d="M101-234c-31-9-42 10-38 44h38v23H63V0H32v-167H5v-23h27c-7-52 17-82 69-68v24" id="bw"/><g id="ag"><use transform="matrix(0.05,0,0,0.05,0,0)" xlink:href="#bt"/><use transform="matrix(0.05,0,0,0.05,10,0)" xlink:href="#bu"/><use transform="matrix(0.05,0,0,0.05,20,0)" xlink:href="#bv"/><use transform="matrix(0.05,0,0,0.05,25,0)" xlink:href="#bt"/><use transform="matrix(0.05,0,0,0.05,35,0)" xlink:href="#bw"/><use transform="matrix(0.05,0,0,0.05,39.65,0)" xlink:href="#bw"/></g><path fill="#c92d39" d="M30 0v-248h33v221h125V0H30" id="bx"/><path fill="#c92d39" d="M30 0v-248h187v28H63v79h144v27H63v87h162V0H30" id="by"/><path fill="#c92d39" d="M30-248c118-7 216 8 213 122C240-48 200 0 122 0H30v-248zM63-27c89 8 146-16 146-99s-60-101-146-95v194" id="bz"/><g id="ah"><use transform="matrix(0.05,0,0,0.05,0,0)" xlink:href="#bx"/><use transform="matrix(0.05,0,0,0.05,10,0)" xlink:href="#by"/><use transform="matrix(0.05,0,0,0.05,22,0)" xlink:href="#bz"/></g><path fill="#c92d39" d="M27 0v-27h64v-190l-56 39v-29l58-41h29v221h61V0H27" id="bA"/><use transform="matrix(0.05,0,0,0.05,0,0)" xlink:href="#bA" id="ai"/><path fill="#c92d39" d="M100-194c62-1 85 37 85 99 1 63-27 99-86 99S16-35 15-95c0-66 28-99 85-99zM99-20c44 1 53-31 53-75 0-43-8-75-51-75s-53 32-53 75 10 74 51 75" id="bB"/><path fill="#c92d39" d="M117-194c89-4 53 116 60 194h-32v-121c0-31-8-49-39-48C34-167 62-67 57 0H25l-1-190h30c1 10-1 24 2 32 11-22 29-35 61-36" id="bC"/><path fill="#c92d39" d="M0 4l72-265h28L28 4H0" id="bD"/><path fill="#c92d39" d="M101-234c-31-9-42 10-38 44h38v23H63V0H32v-167H5v-23h27c-7-52 17-82 69-68v24" id="bE"/><g id="aj"><use transform="matrix(0.05,0,0,0.05,0,0)" xlink:href="#bB"/><use transform="matrix(0.05,0,0,0.05,10,0)" xlink:href="#bC"/><use transform="matrix(0.05,0,0,0.05,20,0)" xlink:href="#bD"/><use transform="matrix(0.05,0,0,0.05,25,0)" xlink:href="#bB"/><use transform="matrix(0.05,0,0,0.05,35,0)" xlink:href="#bE"/><use transform="matrix(0.05,0,0,0.05,39.65,0)" xlink:href="#bE"/></g><g id="ak"><use transform="matrix(0.05,0,0,0.05,0,0)" xlink:href="#bb"/><use transform="matrix(0.05,0,0,0.05,14,0)" xlink:href="#au"/><use transform="matrix(0.05,0,0,0.05,24,0)" xlink:href="#aI"/><use transform="matrix(0.05,0,0,0.05,29,0)" xlink:href="#aH"/><use transform="matrix(0.05,0,0,0.05,39,0)" xlink:href="#au"/><use transform="matrix(0.05,0,0,0.05,49,0)" xlink:href="#aI"/></g><g id="al"><use transform="matrix(0.05,0,0,0.05,0,0)" xlink:href="#aG"/><use transform="matrix(0.05,0,0,0.05,5,0)" xlink:href="#aw"/><use transform="matrix(0.05,0,0,0.05,15,0)" xlink:href="#at"/><use transform="matrix(0.05,0,0,0.05,25,0)" xlink:href="#av"/><use transform="matrix(0.05,0,0,0.05,28.950000000000003,0)" xlink:href="#aK"/><use transform="matrix(0.05,0,0,0.05,37.95,0)" xlink:href="#aB"/><use transform="matrix(0.05,0,0,0.05,47.95,0)" xlink:href="#aI"/><use transform="matrix(0.05,0,0,0.05,52.95,0)" xlink:href="#az"/></g><g id="am"><use transform="matrix(0.05,0,0,0.05,0,0)" xlink:href="#at"/><use transform="matrix(0.05,0,0,0.05,10,0)" xlink:href="#av"/><use transform="matrix(0.05,0,0,0.05,13.949999999999998,0)" xlink:href="#aR"/><use transform="matrix(0.05,0,0,0.05,22.95,0)" xlink:href="#aI"/><use transform="matrix(0.05,0,0,0.05,27.950000000000003,0)" xlink:href="#aB"/><use transform="matrix(0.05,0,0,0.05,37.95,0)" xlink:href="#aw"/><use transform="matrix(0.05,0,0,0.05,47.95,0)" xlink:href="#aK"/><use transform="matrix(0.05,0,0,0.05,56.95,0)" xlink:href="#az"/></g><g id="an"><use transform="matrix(0.05,0,0,0.05,0,0)" xlink:href="#bc"/><use transform="matrix(0.05,0,0,0.05,10,0)" xlink:href="#az"/><use transform="matrix(0.05,0,0,0.05,20,0)" xlink:href="#aI"/><use transform="matrix(0.05,0,0,0.05,25,0)" xlink:href="#aW"/><use transform="matrix(0.05,0,0,0.05,37.95,0)" xlink:href="#az"/><use transform="matrix(0.05,0,0,0.05,47.95,0)" xlink:href="#az"/><use transform="matrix(0.05,0,0,0.05,57.95,0)" xlink:href="#aw"/></g><g id="ao"><use transform="matrix(0.05,0,0,0.05,0,0)" xlink:href="#aI"/><use transform="matrix(0.05,0,0,0.05,5,0)" xlink:href="#aW"/><use transform="matrix(0.05,0,0,0.05,17.950000000000003,0)" xlink:href="#ax"/></g><g id="ap"><use transform="matrix(0.05,0,0,0.05,0,0)" xlink:href="#aQ"/><use transform="matrix(0.05,0,0,0.05,12.950000000000001,0)" xlink:href="#aL"/><use transform="matrix(0.05,0,0,0.05,16.900000000000002,0)" xlink:href="#aI"/><use transform="matrix(0.05,0,0,0.05,21.900000000000002,0)" xlink:href="#as"/><use transform="matrix(0.05,0,0,0.05,27.85,0)" xlink:href="#aB"/><use transform="matrix(0.05,0,0,0.05,37.85,0)" xlink:href="#aR"/><use transform="matrix(0.05,0,0,0.05,46.85,0)" xlink:href="#ax"/><use transform="matrix(0.05,0,0,0.05,56.85,0)" xlink:href="#aw"/><use transform="matrix(0.05,0,0,0.05,66.85,0)" xlink:href="#av"/><use transform="matrix(0.05,0,0,0.05,70.8,0)" xlink:href="#aK"/></g><g id="aq"><use transform="matrix(0.05,0,0,0.05,0,0)" xlink:href="#aR"/><use transform="matrix(0.05,0,0,0.05,9,0)" xlink:href="#az"/><use transform="matrix(0.05,0,0,0.05,19,0)" xlink:href="#aw"/><use transform="matrix(0.05,0,0,0.05,29,0)" xlink:href="#aR"/><use transform="matrix(0.05,0,0,0.05,38,0)" xlink:href="#ax"/><use transform="matrix(0.05,0,0,0.05,48,0)" xlink:href="#as"/></g></defs></g></svg>